<mxfile host="Electron" agent="Mozilla/5.0 (Windows NT 10.0; Win64; x64) AppleWebKit/537.36 (KHTML, like Gecko) draw.io/26.0.9 Chrome/128.0.6613.186 Electron/32.2.5 Safari/537.36" version="26.0.9">
  <diagram name="PÃ¡gina-1" id="MzhOIyTQMM09GBE4kWv-">
    <mxGraphModel dx="1834" dy="1236" grid="0" gridSize="10" guides="1" tooltips="1" connect="1" arrows="1" fold="1" page="0" pageScale="1" pageWidth="827" pageHeight="1169" math="0" shadow="0">
      <root>
        <mxCell id="0" />
        <mxCell id="1" parent="0" />
        <mxCell id="fP5sAmSkLrKOwZIjRT7V-2" value="" style="rounded=0;whiteSpace=wrap;html=1;" vertex="1" parent="1">
          <mxGeometry x="-385" y="-3" width="1424" height="822" as="geometry" />
        </mxCell>
        <mxCell id="fP5sAmSkLrKOwZIjRT7V-3" value="" style="rounded=0;whiteSpace=wrap;html=1;glass=0;" vertex="1" parent="1">
          <mxGeometry x="-371" y="89" width="1016" height="715" as="geometry" />
        </mxCell>
        <mxCell id="fP5sAmSkLrKOwZIjRT7V-5" value="ComboBoxRonda" style="rounded=0;whiteSpace=wrap;html=1;" vertex="1" parent="1">
          <mxGeometry x="670" y="89" width="120" height="60" as="geometry" />
        </mxCell>
        <mxCell id="fP5sAmSkLrKOwZIjRT7V-6" value="Codigo partida" style="rounded=1;whiteSpace=wrap;html=1;" vertex="1" parent="1">
          <mxGeometry x="-371" y="10" width="448" height="60" as="geometry" />
        </mxCell>
        <mxCell id="fP5sAmSkLrKOwZIjRT7V-7" value="Ver RESULTADO TORNEO" style="rounded=1;whiteSpace=wrap;html=1;" vertex="1" parent="1">
          <mxGeometry x="525" y="13" width="120" height="60" as="geometry" />
        </mxCell>
        <mxCell id="fP5sAmSkLrKOwZIjRT7V-8" value="Ver PARTIDAS ACABADAS" style="rounded=1;whiteSpace=wrap;html=1;" vertex="1" parent="1">
          <mxGeometry x="880" y="91" width="120" height="60" as="geometry" />
        </mxCell>
        <mxCell id="fP5sAmSkLrKOwZIjRT7V-9" value="Ver PARTIDAS INACABADAS" style="rounded=1;whiteSpace=wrap;html=1;" vertex="1" parent="1">
          <mxGeometry x="880" y="177" width="120" height="60" as="geometry" />
        </mxCell>
      </root>
    </mxGraphModel>
  </diagram>
</mxfile>
